<svg width="60" height="59" viewBox="0 0 60 59" fill="none" xmlns="http://www.w3.org/2000/svg">
<path d="M30.06 0C36.4482 7.61788e-08 42.6638 2.07368 47.7724 5.9093C52.881 9.74492 56.6064 15.1352 58.3887 21.2698C60.1709 27.4043 59.9137 33.9517 57.6556 39.9275C55.3975 45.9033 51.2606 50.9847 45.8669 54.4077C40.4731 57.8307 34.114 59.4103 27.7455 58.9091C21.3769 58.4078 15.3432 55.8529 10.5513 51.6283C5.75942 47.4037 2.46837 41.7377 1.17292 35.4822C-0.122526 29.2267 0.647627 22.7197 3.3676 16.9395L8.70608 19.4516C6.5301 24.0758 5.91398 29.2814 6.95034 34.2858C7.9867 39.2902 10.6195 43.8229 14.453 47.2026C18.2865 50.5823 23.1135 52.6263 28.2084 53.0272C33.3032 53.4282 38.3905 52.1645 42.7055 49.4261C47.0205 46.6878 50.33 42.6227 52.1365 37.842C53.9429 33.0613 54.1487 27.8235 52.7229 22.9158C51.2971 18.0082 48.3168 13.6959 44.2299 10.6274C40.1431 7.55895 35.1706 5.9 30.06 5.9V0Z" fill="url(#paint0_linear_1060_8)"/>
<path d="M30.06 0C36.4482 7.61788e-08 42.6638 2.07368 47.7724 5.9093C52.881 9.74492 56.6064 15.1352 58.3887 21.2698C60.1709 27.4043 59.9137 33.9517 57.6556 39.9275C55.3975 45.9033 51.2606 50.9847 45.8669 54.4077C40.4731 57.8307 34.114 59.4103 27.7455 58.9091C21.3769 58.4078 15.3432 55.8529 10.5513 51.6283C5.75942 47.4037 2.46837 41.7377 1.17292 35.4822C-0.122526 29.2267 0.647627 22.7197 3.3676 16.9395L8.70608 19.4516C6.5301 24.0758 5.91398 29.2814 6.95034 34.2858C7.9867 39.2902 10.6195 43.8229 14.453 47.2026C18.2865 50.5823 23.1135 52.6263 28.2084 53.0272C33.3032 53.4282 38.3905 52.1645 42.7055 49.4261C47.0205 46.6878 50.33 42.6227 52.1365 37.842C53.9429 33.0613 54.1487 27.8235 52.7229 22.9158C51.2971 18.0082 48.3168 13.6959 44.2299 10.6274C40.1431 7.55895 35.1706 5.9 30.06 5.9V0Z" fill="black" fill-opacity="0.2"/>
<defs>
<linearGradient id="paint0_linear_1060_8" x1="59.56" y1="0" x2="0.559998" y2="0" gradientUnits="userSpaceOnUse">
<stop stop-color="#8743FF"/>
<stop offset="1" stop-color="#4136F1"/>
</linearGradient>
</defs>
</svg>
