<svg width="19" height="26" viewBox="0 0 19 26" fill="none" xmlns="http://www.w3.org/2000/svg">
<path d="M5.02085 8.91718C5.02085 7.49901 3.13463 7.12311 2.6342 8.45005C1.42369 11.6599 0.541687 14.5313 0.541687 16.0837C0.541687 21.0313 4.55247 25.042 9.50002 25.042C14.4476 25.042 18.4584 21.0313 18.4584 16.0837C18.4584 14.4158 17.4403 11.2255 16.0906 7.72875C14.3421 3.19907 13.4679 0.934228 12.3888 0.812239C12.0435 0.773204 11.6668 0.843384 11.3587 1.00414C10.3959 1.50655 10.3959 3.97676 10.3959 8.91718C10.3959 10.4014 9.19262 11.6047 7.70835 11.6047C6.22409 11.6047 5.02085 10.4014 5.02085 8.91718Z" fill="#FFC30D"/>
</svg>
